<svg xmlns="http://www.w3.org/2000/svg" data-name="Layer 1" viewBox="0 0 32 40" x="0px" y="0px"><g><path d="M23,2H9A3.00328,3.00328,0,0,0,6,5V23a3.00328,3.00328,0,0,0,3,3h4v1a1.00067,1.00067,0,0,1-1,1H8a1,1,0,0,0,0,2h4a3.00328,3.00328,0,0,0,3-3V26h2v1a3.00328,3.00328,0,0,0,3,3h4a1,1,0,0,0,0-2H20a1.00067,1.00067,0,0,1-1-1V26h4a3.00328,3.00328,0,0,0,3-3V5A3.00328,3.00328,0,0,0,23,2ZM20,24H12V21a1.00067,1.00067,0,0,1,1-1h6a1.00067,1.00067,0,0,1,1,1Zm4-1a1.00067,1.00067,0,0,1-1,1H22V21a3.00328,3.00328,0,0,0-3-3H13a3.00328,3.00328,0,0,0-3,3v3H9a1.00067,1.00067,0,0,1-1-1V5A1.00067,1.00067,0,0,1,9,4H23a1.00067,1.00067,0,0,1,1,1Z"/><path d="M16,6a3.5,3.5,0,1,0,3.5,3.5A3.50424,3.50424,0,0,0,16,6Zm0,5a1.5,1.5,0,1,1,1.5-1.5A1.50164,1.50164,0,0,1,16,11Z"/></g><text x="0" y="47" fill="#000000" font-size="5px" font-weight="bold" font-family="'Helvetica Neue', Helvetica, Arial-Unicode, Arial, Sans-serif">Created by Daniil Churakov</text><text x="0" y="52" fill="#000000" font-size="5px" font-weight="bold" font-family="'Helvetica Neue', Helvetica, Arial-Unicode, Arial, Sans-serif">from the Noun Project</text></svg>